<svg width="36" height="37" viewBox="0 0 36 37" fill="none" xmlns="http://www.w3.org/2000/svg">
<rect width="36" height="37" rx="18" fill="#F97316"/>
<path d="M25.9899 12.0539H20.9654V13.6552H26.0098L25.9899 12.0539ZM24.9295 23.07C24.5484 23.3594 24.0982 23.5063 23.6412 23.4902C23.3387 23.5264 23.0329 23.4905 22.743 23.385C22.4531 23.2795 22.1853 23.1065 21.9565 22.8769C21.5333 22.3271 21.313 21.6105 21.342 20.8781H27.9026C27.9499 20.1156 27.8931 19.3492 27.7342 18.6068C27.5804 17.9004 27.3114 17.2338 26.9413 16.6421C26.5688 16.0681 26.0877 15.5983 25.5341 15.2679C24.9181 14.9198 24.2387 14.7447 23.552 14.7568C22.9062 14.7514 22.2659 14.8943 21.6691 15.177C21.1225 15.4411 20.6273 15.8271 20.2122 16.3127C19.7984 16.808 19.4779 17.3956 19.2708 18.0389C19.0485 18.7335 18.9377 19.4684 18.9437 20.2081C18.9335 20.9583 19.0409 21.7046 19.2609 22.4113C19.4476 23.0513 19.7442 23.6421 20.133 24.1489C20.5352 24.6465 21.0296 25.0346 21.5799 25.2846C22.1934 25.5525 22.846 25.6835 23.5025 25.6707C24.4235 25.7036 25.3329 25.4273 26.1188 24.8757C26.9125 24.2294 27.484 23.2853 27.7342 22.2069H25.544C25.4267 22.5636 25.211 22.8667 24.9295 23.07ZM21.5303 18.391C21.6074 18.1079 21.7355 17.8464 21.9062 17.6234C22.0769 17.4004 22.2864 17.2208 22.5213 17.0963C22.8325 16.9358 23.1713 16.8582 23.5124 16.8692C23.7588 16.8451 24.0068 16.8823 24.2394 16.9784C24.4721 17.0744 24.6838 17.227 24.8602 17.4257C25.1969 17.898 25.413 18.468 25.4845 19.0724H21.3717C21.3878 18.8416 21.4243 18.6133 21.4808 18.391H21.5303ZM16.2878 17.8459C16.7922 17.6052 17.2304 17.2128 17.5563 16.7102C17.8558 16.1764 18.0046 15.5499 17.9824 14.9158C18.0018 14.3376 17.9034 13.7621 17.695 13.235C17.5199 12.7784 17.2388 12.3855 16.8824 12.0993C16.5045 11.8017 16.0753 11.6004 15.6238 11.5088C15.0894 11.3803 14.5444 11.3194 13.9985 11.3271H8.08203V25.6139H14.1273C14.679 25.6144 15.2285 25.5343 15.7625 25.3754C16.2687 25.2254 16.7482 24.9756 17.1797 24.6373C17.5976 24.3053 17.938 23.8607 18.1707 23.3426C18.4283 22.7631 18.5544 22.1187 18.5374 21.4687C18.5562 20.6632 18.359 19.8705 17.9725 19.1973C17.5569 18.5204 16.9404 18.04 16.2382 17.8459H16.2878ZM10.8272 13.7688H13.394C13.6298 13.7684 13.8652 13.7912 14.0976 13.8369C14.3116 13.8733 14.5171 13.9582 14.7021 14.0868C14.8808 14.2026 15.0257 14.3765 15.1183 14.5865C15.2331 14.8383 15.2878 15.1203 15.2769 15.4042C15.2954 15.6486 15.2628 15.8946 15.1818 16.1217C15.1008 16.3488 14.9737 16.5505 14.8111 16.7102C14.4565 16.9896 14.0321 17.1291 13.6021 17.1077H10.8272V13.7688ZM15.6238 22.2183C15.522 22.4497 15.368 22.6458 15.1778 22.7861C14.9799 22.9272 14.7618 23.0271 14.5336 23.0814C14.28 23.1464 14.0205 23.1769 13.7606 23.1722H10.7875V19.2541H13.7606C14.2708 19.2285 14.7747 19.3918 15.1976 19.7197C15.3887 19.9163 15.5367 20.1616 15.6297 20.4358C15.7227 20.7101 15.758 21.0055 15.7328 21.2983C15.7596 21.6105 15.7222 21.9256 15.6238 22.2183Z" fill="#d4d4d4"/>
</svg>
