<svg width="190" height="190" viewBox="0 0 190 190" fill="none" xmlns="http://www.w3.org/2000/svg">
<path d="M94.9994 7.91663C77.7759 7.91663 60.9393 13.024 46.6185 22.5928C32.2977 32.1617 21.136 45.7622 14.5449 61.6746C7.95375 77.587 6.22921 95.0966 9.58934 111.989C12.9495 128.882 21.2434 144.398 33.4222 156.577C45.601 168.756 61.1178 177.05 78.0103 180.41C94.9028 183.77 112.412 182.046 128.325 175.454C144.237 168.863 157.838 157.702 167.407 143.381C176.975 129.06 182.083 112.223 182.083 95C182.055 71.9124 172.872 49.7782 156.547 33.4528C140.221 17.1274 118.087 7.94386 94.9994 7.91663ZM134.179 122.993C134.935 123.724 135.538 124.597 135.953 125.563C136.368 126.529 136.586 127.568 136.596 128.619C136.605 129.67 136.404 130.712 136.006 131.685C135.608 132.658 135.02 133.542 134.277 134.286C133.534 135.029 132.65 135.617 131.677 136.015C130.704 136.413 129.662 136.613 128.61 136.604C127.559 136.595 126.52 136.377 125.555 135.962C124.589 135.547 123.715 134.944 122.985 134.187L94.9994 106.194L67.0061 134.187C65.513 135.63 63.5132 136.428 61.4375 136.409C59.3617 136.391 57.3761 135.559 55.9083 134.091C54.4405 132.623 53.6079 130.638 53.5899 128.562C53.5718 126.486 54.3698 124.486 55.8119 122.993L83.8052 95L55.8119 67.0066C55.0558 66.2763 54.4527 65.4028 54.0378 64.4369C53.6228 63.471 53.4045 62.4322 53.3953 61.3811C53.3862 60.3299 53.5865 59.2874 53.9845 58.3145C54.3826 57.3416 54.9704 56.4576 55.7138 55.7143C56.4571 54.971 57.341 54.3832 58.3139 53.9851C59.2868 53.5871 60.3293 53.3868 61.3805 53.3959C62.4317 53.405 63.4705 53.6234 64.4363 54.0383C65.4022 54.4532 66.2758 55.0563 67.0061 55.8125L94.9994 83.8058L122.985 55.8125C123.715 55.0563 124.589 54.4532 125.555 54.0383C126.52 53.6234 127.559 53.405 128.61 53.3959C129.662 53.3868 130.704 53.5871 131.677 53.9851C132.65 54.3832 133.534 54.971 134.277 55.7143C135.02 56.4576 135.608 57.3416 136.006 58.3145C136.404 59.2874 136.605 60.3299 136.596 61.3811C136.586 62.4322 136.368 63.471 135.953 64.4369C135.538 65.4028 134.935 66.2763 134.179 67.0066L106.194 95L134.179 122.993Z" fill="white"/>
</svg>
