<svg width="251" height="15" viewBox="0 0 251 15" fill="none" xmlns="http://www.w3.org/2000/svg">
<path d="M19.336 11.184L22.432 7.896C22.688 7.624 22.896 7.38 23.056 7.164C23.216 6.948 23.332 6.744 23.404 6.552C23.476 6.36 23.512 6.164 23.512 5.964C23.512 5.588 23.388 5.296 23.14 5.088C22.9 4.872 22.592 4.764 22.216 4.764C21.816 4.764 21.464 4.864 21.16 5.064C20.856 5.264 20.584 5.576 20.344 6L19.384 5.208C19.712 4.64 20.116 4.212 20.596 3.924C21.076 3.628 21.632 3.48 22.264 3.48C22.784 3.48 23.24 3.584 23.632 3.792C24.024 4 24.328 4.292 24.544 4.668C24.76 5.036 24.868 5.464 24.868 5.952C24.868 6.304 24.824 6.62 24.736 6.9C24.656 7.172 24.516 7.448 24.316 7.728C24.116 8 23.84 8.32 23.488 8.688L21.112 11.148L19.336 11.184ZM19.336 12V11.184L20.524 10.764H25.036V12H19.336ZM29.4402 12.12C28.8082 12.12 28.2282 11.944 27.7002 11.592C27.1802 11.232 26.7642 10.728 26.4522 10.08C26.1402 9.432 25.9842 8.668 25.9842 7.788C25.9842 6.908 26.1362 6.148 26.4402 5.508C26.7522 4.86 27.1682 4.36 27.6882 4.008C28.2082 3.656 28.7842 3.48 29.4162 3.48C30.0562 3.48 30.6362 3.656 31.1562 4.008C31.6762 4.36 32.0882 4.86 32.3922 5.508C32.7042 6.148 32.8602 6.912 32.8602 7.8C32.8602 8.68 32.7042 9.444 32.3922 10.092C32.0882 10.74 31.6762 11.24 31.1562 11.592C30.6442 11.944 30.0722 12.12 29.4402 12.12ZM29.4162 10.824C29.8322 10.824 30.1922 10.712 30.4962 10.488C30.8002 10.264 31.0362 9.928 31.2042 9.48C31.3802 9.032 31.4682 8.468 31.4682 7.788C31.4682 7.116 31.3802 6.556 31.2042 6.108C31.0362 5.66 30.7962 5.328 30.4842 5.112C30.1802 4.888 29.8242 4.776 29.4162 4.776C29.0082 4.776 28.6482 4.888 28.3362 5.112C28.0322 5.328 27.7962 5.66 27.6282 6.108C27.4602 6.548 27.3762 7.108 27.3762 7.788C27.3762 8.468 27.4602 9.032 27.6282 9.48C27.7962 9.928 28.0322 10.264 28.3362 10.488C28.6482 10.712 29.0082 10.824 29.4162 10.824ZM33.6915 11.184L36.7875 7.896C37.0435 7.624 37.2515 7.38 37.4115 7.164C37.5715 6.948 37.6875 6.744 37.7595 6.552C37.8315 6.36 37.8675 6.164 37.8675 5.964C37.8675 5.588 37.7435 5.296 37.4955 5.088C37.2555 4.872 36.9475 4.764 36.5715 4.764C36.1715 4.764 35.8195 4.864 35.5155 5.064C35.2115 5.264 34.9395 5.576 34.6995 6L33.7395 5.208C34.0675 4.64 34.4715 4.212 34.9515 3.924C35.4315 3.628 35.9875 3.48 36.6195 3.48C37.1395 3.48 37.5955 3.584 37.9875 3.792C38.3795 4 38.6835 4.292 38.8995 4.668C39.1155 5.036 39.2235 5.464 39.2235 5.952C39.2235 6.304 39.1795 6.62 39.0915 6.9C39.0115 7.172 38.8715 7.448 38.6715 7.728C38.4715 8 38.1955 8.32 37.8435 8.688L35.4675 11.148L33.6915 11.184ZM33.6915 12V11.184L34.8795 10.764H39.3915V12H33.6915ZM40.1837 9L43.1717 3.6H44.7317L41.6717 9H40.1837ZM40.1837 9.84V9L40.7717 8.604H46.6997V9.84H40.1837ZM44.1677 12V6.504H45.5237V12H44.1677ZM52.6856 12.12C52.0216 12.12 51.4576 12 50.9936 11.76C50.5296 11.52 50.1136 11.168 49.7456 10.704L50.6816 9.768C50.9136 10.104 51.1896 10.368 51.5096 10.56C51.8296 10.744 52.2376 10.836 52.7336 10.836C53.1976 10.836 53.5656 10.74 53.8376 10.548C54.1176 10.356 54.2576 10.092 54.2576 9.756C54.2576 9.476 54.1856 9.248 54.0416 9.072C53.8976 8.896 53.7056 8.752 53.4656 8.64C53.2336 8.52 52.9736 8.416 52.6856 8.328C52.4056 8.232 52.1216 8.128 51.8336 8.016C51.5536 7.896 51.2936 7.748 51.0536 7.572C50.8216 7.396 50.6336 7.168 50.4896 6.888C50.3456 6.608 50.2736 6.252 50.2736 5.82C50.2736 5.324 50.3936 4.904 50.6336 4.56C50.8816 4.208 51.2136 3.94 51.6296 3.756C52.0456 3.572 52.5096 3.48 53.0216 3.48C53.5736 3.48 54.0656 3.588 54.4976 3.804C54.9376 4.02 55.2936 4.296 55.5656 4.632L54.6296 5.568C54.3896 5.296 54.1376 5.096 53.8736 4.968C53.6176 4.832 53.3216 4.764 52.9856 4.764C52.5696 4.764 52.2416 4.848 52.0016 5.016C51.7696 5.184 51.6536 5.42 51.6536 5.724C51.6536 5.98 51.7256 6.188 51.8696 6.348C52.0136 6.5 52.2016 6.632 52.4336 6.744C52.6736 6.848 52.9336 6.948 53.2136 7.044C53.5016 7.14 53.7856 7.248 54.0656 7.368C54.3536 7.488 54.6136 7.644 54.8456 7.836C55.0856 8.02 55.2776 8.26 55.4216 8.556C55.5656 8.852 55.6376 9.224 55.6376 9.672C55.6376 10.424 55.3696 11.02 54.8336 11.46C54.3056 11.9 53.5896 12.12 52.6856 12.12ZM59.4393 12.12C58.8633 12.12 58.3433 11.992 57.8793 11.736C57.4233 11.472 57.0593 11.112 56.7873 10.656C56.5233 10.2 56.3913 9.688 56.3913 9.12C56.3913 8.552 56.5233 8.044 56.7873 7.596C57.0513 7.14 57.4073 6.78 57.8553 6.516C58.3113 6.252 58.8153 6.12 59.3673 6.12C59.9033 6.12 60.3753 6.244 60.7833 6.492C61.1993 6.74 61.5233 7.08 61.7553 7.512C61.9953 7.944 62.1153 8.436 62.1153 8.988C62.1153 9.084 62.1073 9.184 62.0912 9.288C62.0833 9.384 62.0673 9.492 62.0433 9.612H57.3153V8.532H61.3593L60.8673 8.964C60.8513 8.612 60.7833 8.316 60.6633 8.076C60.5433 7.836 60.3713 7.652 60.1473 7.524C59.9313 7.396 59.6633 7.332 59.3433 7.332C59.0073 7.332 58.7153 7.404 58.4673 7.548C58.2193 7.692 58.0273 7.896 57.8913 8.16C57.7553 8.416 57.6873 8.724 57.6873 9.084C57.6873 9.444 57.7593 9.76 57.9033 10.032C58.0473 10.304 58.2513 10.516 58.5153 10.668C58.7793 10.812 59.0833 10.884 59.4273 10.884C59.7233 10.884 59.9953 10.832 60.2433 10.728C60.4993 10.624 60.7153 10.472 60.8913 10.272L61.7313 11.124C61.4513 11.452 61.1113 11.7 60.7113 11.868C60.3113 12.036 59.8873 12.12 59.4393 12.12ZM63.1734 12V6.24H64.4934V12H63.1734ZM64.4934 8.796L64.0374 8.568C64.0374 7.84 64.1974 7.252 64.5174 6.804C64.8454 6.348 65.3374 6.12 65.9934 6.12C66.2814 6.12 66.5414 6.172 66.7734 6.276C67.0054 6.38 67.2214 6.548 67.4214 6.78L66.5574 7.668C66.4534 7.556 66.3374 7.476 66.2094 7.428C66.0814 7.38 65.9334 7.356 65.7654 7.356C65.3974 7.356 65.0934 7.472 64.8534 7.704C64.6134 7.936 64.4934 8.3 64.4934 8.796ZM68.0721 12V6.24H69.3921V12H68.0721ZM68.7321 5.184C68.5081 5.184 68.3201 5.108 68.1681 4.956C68.0241 4.804 67.9521 4.616 67.9521 4.392C67.9521 4.168 68.0241 3.98 68.1681 3.828C68.3201 3.676 68.5081 3.6 68.7321 3.6C68.9641 3.6 69.1521 3.676 69.2961 3.828C69.4401 3.98 69.5121 4.168 69.5121 4.392C69.5121 4.616 69.4401 4.804 69.2961 4.956C69.1521 5.108 68.9641 5.184 68.7321 5.184ZM73.2726 14.52C72.6646 14.52 72.1326 14.408 71.6766 14.184C71.2206 13.968 70.8526 13.66 70.5726 13.26L71.4366 12.396C71.6686 12.684 71.9326 12.9 72.2286 13.044C72.5246 13.188 72.8806 13.26 73.2966 13.26C73.8166 13.26 74.2286 13.124 74.5326 12.852C74.8366 12.588 74.9886 12.224 74.9886 11.76V10.344L75.2166 9.072L74.9886 7.788V6.24H76.3086V11.76C76.3086 12.312 76.1806 12.792 75.9246 13.2C75.6686 13.616 75.3126 13.94 74.8566 14.172C74.4006 14.404 73.8726 14.52 73.2726 14.52ZM73.2126 11.88C72.7006 11.88 72.2366 11.756 71.8206 11.508C71.4126 11.252 71.0886 10.904 70.8486 10.464C70.6166 10.024 70.5006 9.532 70.5006 8.988C70.5006 8.444 70.6166 7.956 70.8486 7.524C71.0886 7.092 71.4126 6.752 71.8206 6.504C72.2366 6.248 72.7006 6.12 73.2126 6.12C73.6686 6.12 74.0686 6.212 74.4126 6.396C74.7566 6.58 75.0246 6.836 75.2166 7.164C75.4086 7.484 75.5046 7.86 75.5046 8.292V9.708C75.5046 10.132 75.4046 10.508 75.2046 10.836C75.0126 11.164 74.7446 11.42 74.4006 11.604C74.0566 11.788 73.6606 11.88 73.2126 11.88ZM73.4766 10.632C73.7966 10.632 74.0766 10.564 74.3166 10.428C74.5566 10.292 74.7406 10.104 74.8686 9.864C75.0046 9.616 75.0726 9.328 75.0726 9C75.0726 8.672 75.0046 8.388 74.8686 8.148C74.7406 7.9 74.5566 7.708 74.3166 7.572C74.0766 7.436 73.7966 7.368 73.4766 7.368C73.1566 7.368 72.8726 7.436 72.6246 7.572C72.3846 7.708 72.1966 7.9 72.0606 8.148C71.9246 8.388 71.8566 8.672 71.8566 9C71.8566 9.32 71.9246 9.604 72.0606 9.852C72.1966 10.1 72.3846 10.292 72.6246 10.428C72.8726 10.564 73.1566 10.632 73.4766 10.632ZM81.723 12V8.676C81.723 8.292 81.599 7.976 81.351 7.728C81.111 7.48 80.799 7.356 80.415 7.356C80.159 7.356 79.931 7.412 79.731 7.524C79.531 7.636 79.375 7.792 79.263 7.992C79.151 8.192 79.095 8.42 79.095 8.676L78.579 8.388C78.579 7.948 78.675 7.56 78.867 7.224C79.059 6.88 79.323 6.612 79.659 6.42C80.003 6.22 80.387 6.12 80.811 6.12C81.243 6.12 81.627 6.232 81.963 6.456C82.299 6.672 82.563 6.956 82.755 7.308C82.947 7.652 83.043 8.012 83.043 8.388V12H81.723ZM77.775 12V6.24H79.095V12H77.775ZM87.0603 12.12C86.4843 12.12 85.9643 11.992 85.5003 11.736C85.0443 11.472 84.6803 11.112 84.4083 10.656C84.1443 10.2 84.0123 9.688 84.0123 9.12C84.0123 8.552 84.1443 8.044 84.4083 7.596C84.6723 7.14 85.0283 6.78 85.4763 6.516C85.9323 6.252 86.4363 6.12 86.9883 6.12C87.5243 6.12 87.9963 6.244 88.4043 6.492C88.8203 6.74 89.1443 7.08 89.3763 7.512C89.6163 7.944 89.7363 8.436 89.7363 8.988C89.7363 9.084 89.7283 9.184 89.7123 9.288C89.7043 9.384 89.6883 9.492 89.6643 9.612H84.9363V8.532H88.9803L88.4883 8.964C88.4723 8.612 88.4043 8.316 88.2843 8.076C88.1643 7.836 87.9923 7.652 87.7683 7.524C87.5523 7.396 87.2843 7.332 86.9643 7.332C86.6283 7.332 86.3363 7.404 86.0883 7.548C85.8403 7.692 85.6483 7.896 85.5123 8.16C85.3763 8.416 85.3083 8.724 85.3083 9.084C85.3083 9.444 85.3803 9.76 85.5243 10.032C85.6683 10.304 85.8723 10.516 86.1363 10.668C86.4003 10.812 86.7043 10.884 87.0483 10.884C87.3443 10.884 87.6163 10.832 87.8643 10.728C88.1203 10.624 88.3363 10.472 88.5123 10.272L89.3523 11.124C89.0723 11.452 88.7323 11.7 88.3323 11.868C87.9323 12.036 87.5083 12.12 87.0603 12.12ZM96.8568 12L94.4208 9.06L96.8448 6.24H98.4168L95.6328 9.408L95.6928 8.652L98.5368 12H96.8568ZM93.1968 12V3.36H94.5168V12H93.1968ZM103.274 12V8.676C103.274 8.292 103.15 7.976 102.902 7.728C102.662 7.48 102.35 7.356 101.966 7.356C101.71 7.356 101.482 7.412 101.282 7.524C101.082 7.636 100.926 7.792 100.814 7.992C100.702 8.192 100.646 8.42 100.646 8.676L100.13 8.388C100.13 7.948 100.226 7.56 100.418 7.224C100.61 6.88 100.874 6.612 101.21 6.42C101.554 6.22 101.938 6.12 102.362 6.12C102.794 6.12 103.178 6.216 103.514 6.408C103.85 6.6 104.114 6.868 104.306 7.212C104.498 7.548 104.594 7.94 104.594 8.388V12H103.274ZM99.3258 12V3.36H100.646V12H99.3258ZM108.347 12.12C107.827 12.12 107.355 11.988 106.931 11.724C106.515 11.46 106.183 11.104 105.935 10.656C105.695 10.2 105.575 9.692 105.575 9.132C105.575 8.564 105.695 8.056 105.935 7.608C106.183 7.152 106.515 6.792 106.931 6.528C107.355 6.256 107.827 6.12 108.347 6.12C108.787 6.12 109.175 6.216 109.511 6.408C109.855 6.592 110.127 6.848 110.327 7.176C110.527 7.504 110.627 7.876 110.627 8.292V9.948C110.627 10.364 110.527 10.736 110.327 11.064C110.135 11.392 109.867 11.652 109.523 11.844C109.179 12.028 108.787 12.12 108.347 12.12ZM108.563 10.872C109.051 10.872 109.443 10.708 109.739 10.38C110.043 10.052 110.195 9.632 110.195 9.12C110.195 8.776 110.127 8.472 109.991 8.208C109.855 7.944 109.663 7.74 109.415 7.596C109.175 7.444 108.891 7.368 108.563 7.368C108.243 7.368 107.959 7.444 107.711 7.596C107.471 7.74 107.279 7.944 107.135 8.208C106.999 8.472 106.931 8.776 106.931 9.12C106.931 9.464 106.999 9.768 107.135 10.032C107.279 10.296 107.471 10.504 107.711 10.656C107.959 10.8 108.243 10.872 108.563 10.872ZM110.111 12V10.452L110.339 9.048L110.111 7.656V6.24H111.431V12H110.111ZM112.896 12V3.36H114.216V12H112.896ZM115.697 12V6.24H117.017V12H115.697ZM116.357 5.184C116.133 5.184 115.945 5.108 115.793 4.956C115.649 4.804 115.577 4.616 115.577 4.392C115.577 4.168 115.649 3.98 115.793 3.828C115.945 3.676 116.133 3.6 116.357 3.6C116.589 3.6 116.777 3.676 116.921 3.828C117.065 3.98 117.137 4.168 117.137 4.392C117.137 4.616 117.065 4.804 116.921 4.956C116.777 5.108 116.589 5.184 116.357 5.184ZM119.29 12V5.484C119.29 5.044 119.386 4.656 119.578 4.32C119.778 3.984 120.05 3.72 120.394 3.528C120.746 3.336 121.15 3.24 121.606 3.24C121.958 3.24 122.258 3.3 122.506 3.42C122.754 3.54 122.986 3.712 123.202 3.936L122.35 4.788C122.254 4.692 122.15 4.616 122.038 4.56C121.926 4.504 121.782 4.476 121.606 4.476C121.286 4.476 121.038 4.564 120.862 4.74C120.694 4.908 120.61 5.152 120.61 5.472V12H119.29ZM117.91 7.44V6.24H122.35V7.44H117.91ZM125.457 12.12C124.937 12.12 124.465 11.988 124.041 11.724C123.625 11.46 123.293 11.104 123.045 10.656C122.805 10.2 122.685 9.692 122.685 9.132C122.685 8.564 122.805 8.056 123.045 7.608C123.293 7.152 123.625 6.792 124.041 6.528C124.465 6.256 124.937 6.12 125.457 6.12C125.897 6.12 126.285 6.216 126.621 6.408C126.965 6.592 127.237 6.848 127.437 7.176C127.637 7.504 127.737 7.876 127.737 8.292V9.948C127.737 10.364 127.637 10.736 127.437 11.064C127.245 11.392 126.977 11.652 126.633 11.844C126.289 12.028 125.897 12.12 125.457 12.12ZM125.673 10.872C126.161 10.872 126.553 10.708 126.849 10.38C127.153 10.052 127.305 9.632 127.305 9.12C127.305 8.776 127.237 8.472 127.101 8.208C126.965 7.944 126.773 7.74 126.525 7.596C126.285 7.444 126.001 7.368 125.673 7.368C125.353 7.368 125.069 7.444 124.821 7.596C124.581 7.74 124.389 7.944 124.245 8.208C124.109 8.472 124.041 8.776 124.041 9.12C124.041 9.464 124.109 9.768 124.245 10.032C124.389 10.296 124.581 10.504 124.821 10.656C125.069 10.8 125.353 10.872 125.673 10.872ZM127.221 12V10.452L127.449 9.048L127.221 7.656V6.24H128.541V12H127.221ZM131.624 12L135.08 3.6H136.04L139.472 12H137.984L135.296 5.196H135.8L133.088 12H131.624ZM133.328 10.38V9.18H137.78V10.38H133.328ZM143.578 12.12C143.138 12.12 142.746 12.028 142.402 11.844C142.058 11.652 141.786 11.392 141.586 11.064C141.394 10.736 141.298 10.364 141.298 9.948V8.292C141.298 7.876 141.398 7.504 141.598 7.176C141.798 6.848 142.07 6.592 142.414 6.408C142.758 6.216 143.146 6.12 143.578 6.12C144.098 6.12 144.566 6.256 144.982 6.528C145.406 6.792 145.738 7.152 145.978 7.608C146.226 8.056 146.35 8.564 146.35 9.132C146.35 9.692 146.226 10.2 145.978 10.656C145.738 11.104 145.406 11.46 144.982 11.724C144.566 11.988 144.098 12.12 143.578 12.12ZM140.494 12V3.36H141.814V7.656L141.586 9.048L141.814 10.452V12H140.494ZM143.362 10.872C143.682 10.872 143.962 10.8 144.202 10.656C144.45 10.504 144.642 10.296 144.778 10.032C144.922 9.768 144.994 9.464 144.994 9.12C144.994 8.776 144.922 8.472 144.778 8.208C144.642 7.944 144.45 7.74 144.202 7.596C143.962 7.444 143.682 7.368 143.362 7.368C143.042 7.368 142.758 7.444 142.51 7.596C142.262 7.74 142.07 7.944 141.934 8.208C141.798 8.472 141.73 8.776 141.73 9.12C141.73 9.464 141.798 9.768 141.934 10.032C142.07 10.296 142.262 10.504 142.51 10.656C142.758 10.8 143.042 10.872 143.362 10.872ZM149.867 12.12C149.347 12.12 148.875 11.988 148.451 11.724C148.035 11.46 147.703 11.104 147.455 10.656C147.215 10.2 147.095 9.692 147.095 9.132C147.095 8.564 147.215 8.056 147.455 7.608C147.703 7.152 148.035 6.792 148.451 6.528C148.875 6.256 149.347 6.12 149.867 6.12C150.307 6.12 150.695 6.216 151.031 6.408C151.375 6.592 151.647 6.848 151.847 7.176C152.047 7.504 152.147 7.876 152.147 8.292V9.948C152.147 10.364 152.047 10.736 151.847 11.064C151.655 11.392 151.387 11.652 151.043 11.844C150.699 12.028 150.307 12.12 149.867 12.12ZM150.083 10.872C150.571 10.872 150.963 10.708 151.259 10.38C151.563 10.052 151.715 9.632 151.715 9.12C151.715 8.776 151.647 8.472 151.511 8.208C151.375 7.944 151.183 7.74 150.935 7.596C150.695 7.444 150.411 7.368 150.083 7.368C149.763 7.368 149.479 7.444 149.231 7.596C148.991 7.74 148.799 7.944 148.655 8.208C148.519 8.472 148.451 8.776 148.451 9.12C148.451 9.464 148.519 9.768 148.655 10.032C148.799 10.296 148.991 10.504 149.231 10.656C149.479 10.8 149.763 10.872 150.083 10.872ZM151.631 12V10.452L151.859 9.048L151.631 7.656V6.24H152.951V12H151.631ZM157.5 12.12C157.06 12.12 156.668 12.028 156.324 11.844C155.98 11.652 155.708 11.392 155.508 11.064C155.316 10.736 155.22 10.364 155.22 9.948V8.292C155.22 7.876 155.32 7.504 155.52 7.176C155.72 6.848 155.992 6.592 156.336 6.408C156.68 6.216 157.068 6.12 157.5 6.12C158.02 6.12 158.488 6.256 158.904 6.528C159.328 6.792 159.66 7.152 159.9 7.608C160.148 8.056 160.272 8.564 160.272 9.132C160.272 9.692 160.148 10.2 159.9 10.656C159.66 11.104 159.328 11.46 158.904 11.724C158.488 11.988 158.02 12.12 157.5 12.12ZM154.416 12V3.36H155.736V7.656L155.508 9.048L155.736 10.452V12H154.416ZM157.284 10.872C157.604 10.872 157.884 10.8 158.124 10.656C158.372 10.504 158.564 10.296 158.7 10.032C158.844 9.768 158.916 9.464 158.916 9.12C158.916 8.776 158.844 8.472 158.7 8.208C158.564 7.944 158.372 7.74 158.124 7.596C157.884 7.444 157.604 7.368 157.284 7.368C156.964 7.368 156.68 7.444 156.432 7.596C156.184 7.74 155.992 7.944 155.856 8.208C155.72 8.472 155.652 8.776 155.652 9.12C155.652 9.464 155.72 9.768 155.856 10.032C155.992 10.296 156.184 10.504 156.432 10.656C156.68 10.8 156.964 10.872 157.284 10.872ZM163.789 12.12C163.269 12.12 162.797 11.988 162.373 11.724C161.957 11.46 161.625 11.104 161.377 10.656C161.137 10.2 161.017 9.692 161.017 9.132C161.017 8.564 161.137 8.056 161.377 7.608C161.625 7.152 161.957 6.792 162.373 6.528C162.797 6.256 163.269 6.12 163.789 6.12C164.229 6.12 164.617 6.216 164.953 6.408C165.297 6.592 165.569 6.848 165.769 7.176C165.969 7.504 166.069 7.876 166.069 8.292V9.948C166.069 10.364 165.969 10.736 165.769 11.064C165.577 11.392 165.309 11.652 164.965 11.844C164.621 12.028 164.229 12.12 163.789 12.12ZM164.005 10.872C164.493 10.872 164.885 10.708 165.181 10.38C165.485 10.052 165.637 9.632 165.637 9.12C165.637 8.776 165.569 8.472 165.433 8.208C165.297 7.944 165.105 7.74 164.857 7.596C164.617 7.444 164.333 7.368 164.005 7.368C163.685 7.368 163.401 7.444 163.153 7.596C162.913 7.74 162.721 7.944 162.577 8.208C162.441 8.472 162.373 8.776 162.373 9.12C162.373 9.464 162.441 9.768 162.577 10.032C162.721 10.296 162.913 10.504 163.153 10.656C163.401 10.8 163.685 10.872 164.005 10.872ZM165.553 12V10.452L165.781 9.048L165.553 7.656V6.24H166.873V12H165.553ZM170.989 12.12C170.421 12.12 169.905 11.988 169.441 11.724C168.985 11.46 168.625 11.1 168.361 10.644C168.097 10.188 167.965 9.68 167.965 9.12C167.965 8.552 168.097 8.044 168.361 7.596C168.625 7.14 168.985 6.78 169.441 6.516C169.905 6.252 170.421 6.12 170.989 6.12C171.437 6.12 171.853 6.208 172.237 6.384C172.629 6.552 172.961 6.796 173.233 7.116L172.369 7.992C172.201 7.792 171.997 7.644 171.757 7.548C171.525 7.444 171.269 7.392 170.989 7.392C170.661 7.392 170.369 7.468 170.113 7.62C169.865 7.764 169.669 7.964 169.525 8.22C169.389 8.476 169.321 8.776 169.321 9.12C169.321 9.456 169.389 9.756 169.525 10.02C169.669 10.276 169.865 10.48 170.113 10.632C170.369 10.776 170.661 10.848 170.989 10.848C171.269 10.848 171.525 10.8 171.757 10.704C171.997 10.6 172.201 10.448 172.369 10.248L173.233 11.124C172.961 11.444 172.629 11.692 172.237 11.868C171.853 12.036 171.437 12.12 170.989 12.12ZM176.48 12.12C175.96 12.12 175.488 11.988 175.064 11.724C174.648 11.46 174.316 11.104 174.068 10.656C173.828 10.2 173.708 9.692 173.708 9.132C173.708 8.564 173.828 8.056 174.068 7.608C174.316 7.152 174.648 6.792 175.064 6.528C175.488 6.256 175.96 6.12 176.48 6.12C176.92 6.12 177.308 6.216 177.644 6.408C177.988 6.592 178.26 6.848 178.46 7.176C178.66 7.504 178.76 7.876 178.76 8.292V9.948C178.76 10.364 178.66 10.736 178.46 11.064C178.268 11.392 178 11.652 177.656 11.844C177.312 12.028 176.92 12.12 176.48 12.12ZM176.696 10.872C177.184 10.872 177.576 10.708 177.872 10.38C178.176 10.052 178.328 9.632 178.328 9.12C178.328 8.776 178.26 8.472 178.124 8.208C177.988 7.944 177.796 7.74 177.548 7.596C177.308 7.444 177.024 7.368 176.696 7.368C176.376 7.368 176.092 7.444 175.844 7.596C175.604 7.74 175.412 7.944 175.268 8.208C175.132 8.472 175.064 8.776 175.064 9.12C175.064 9.464 175.132 9.768 175.268 10.032C175.412 10.296 175.604 10.504 175.844 10.656C176.092 10.8 176.376 10.872 176.696 10.872ZM178.244 12V10.452L178.472 9.048L178.244 7.656V6.24H179.564V12H178.244ZM181.029 12V6.24H182.349V12H181.029ZM182.349 8.796L181.893 8.568C181.893 7.84 182.053 7.252 182.373 6.804C182.701 6.348 183.193 6.12 183.849 6.12C184.137 6.12 184.397 6.172 184.629 6.276C184.861 6.38 185.077 6.548 185.277 6.78L184.413 7.668C184.309 7.556 184.193 7.476 184.065 7.428C183.937 7.38 183.789 7.356 183.621 7.356C183.253 7.356 182.949 7.472 182.709 7.704C182.469 7.936 182.349 8.3 182.349 8.796ZM190.413 12.12C190.093 12.12 189.785 12.08 189.489 12C189.193 11.912 188.921 11.792 188.673 11.64C188.425 11.48 188.209 11.288 188.025 11.064L188.865 10.224C189.065 10.456 189.293 10.632 189.549 10.752C189.813 10.864 190.109 10.92 190.437 10.92C190.733 10.92 190.957 10.876 191.109 10.788C191.261 10.7 191.337 10.572 191.337 10.404C191.337 10.228 191.265 10.092 191.121 9.996C190.977 9.9 190.789 9.82 190.557 9.756C190.333 9.684 190.093 9.612 189.837 9.54C189.589 9.468 189.349 9.372 189.117 9.252C188.893 9.124 188.709 8.952 188.565 8.736C188.421 8.52 188.349 8.24 188.349 7.896C188.349 7.528 188.433 7.212 188.601 6.948C188.777 6.684 189.021 6.48 189.333 6.336C189.653 6.192 190.033 6.12 190.473 6.12C190.937 6.12 191.345 6.204 191.697 6.372C192.057 6.532 192.357 6.776 192.597 7.104L191.757 7.944C191.589 7.736 191.397 7.58 191.181 7.476C190.965 7.372 190.717 7.32 190.437 7.32C190.173 7.32 189.969 7.36 189.825 7.44C189.681 7.52 189.609 7.636 189.609 7.788C189.609 7.948 189.681 8.072 189.825 8.16C189.969 8.248 190.153 8.324 190.377 8.388C190.609 8.452 190.849 8.524 191.097 8.604C191.353 8.676 191.593 8.78 191.817 8.916C192.049 9.044 192.237 9.22 192.381 9.444C192.525 9.66 192.597 9.944 192.597 10.296C192.597 10.856 192.401 11.3 192.009 11.628C191.617 11.956 191.085 12.12 190.413 12.12ZM195.545 12.06L193.085 6.24H194.537L196.217 10.512H195.797L197.573 6.24H199.037L196.361 12.06H195.545ZM193.829 14.4L195.617 10.716L196.361 12.06L195.293 14.4H193.829ZM202.478 12V3.6H203.438L203.858 5.184V12H202.478ZM208.298 12L203.27 5.436L203.438 3.6L208.466 10.164L208.298 12ZM208.298 12L207.878 10.524V3.6H209.258V12H208.298ZM213.3 14.52C212.692 14.52 212.16 14.408 211.704 14.184C211.248 13.968 210.88 13.66 210.6 13.26L211.464 12.396C211.696 12.684 211.96 12.9 212.256 13.044C212.552 13.188 212.908 13.26 213.324 13.26C213.844 13.26 214.256 13.124 214.56 12.852C214.864 12.588 215.016 12.224 215.016 11.76V10.344L215.244 9.072L215.016 7.788V6.24H216.336V11.76C216.336 12.312 216.208 12.792 215.952 13.2C215.696 13.616 215.34 13.94 214.884 14.172C214.428 14.404 213.9 14.52 213.3 14.52ZM213.24 11.88C212.728 11.88 212.264 11.756 211.848 11.508C211.44 11.252 211.116 10.904 210.876 10.464C210.644 10.024 210.528 9.532 210.528 8.988C210.528 8.444 210.644 7.956 210.876 7.524C211.116 7.092 211.44 6.752 211.848 6.504C212.264 6.248 212.728 6.12 213.24 6.12C213.696 6.12 214.096 6.212 214.44 6.396C214.784 6.58 215.052 6.836 215.244 7.164C215.436 7.484 215.532 7.86 215.532 8.292V9.708C215.532 10.132 215.432 10.508 215.232 10.836C215.04 11.164 214.772 11.42 214.428 11.604C214.084 11.788 213.688 11.88 213.24 11.88ZM213.504 10.632C213.824 10.632 214.104 10.564 214.344 10.428C214.584 10.292 214.768 10.104 214.896 9.864C215.032 9.616 215.1 9.328 215.1 9C215.1 8.672 215.032 8.388 214.896 8.148C214.768 7.9 214.584 7.708 214.344 7.572C214.104 7.436 213.824 7.368 213.504 7.368C213.184 7.368 212.9 7.436 212.652 7.572C212.412 7.708 212.224 7.9 212.088 8.148C211.952 8.388 211.884 8.672 211.884 9C211.884 9.32 211.952 9.604 212.088 9.852C212.224 10.1 212.412 10.292 212.652 10.428C212.9 10.564 213.184 10.632 213.504 10.632ZM220.166 12.12C219.678 12.12 219.242 12.012 218.858 11.796C218.482 11.58 218.186 11.284 217.97 10.908C217.762 10.524 217.658 10.084 217.658 9.588V6.24H218.978V9.528C218.978 9.808 219.022 10.048 219.11 10.248C219.206 10.44 219.342 10.588 219.518 10.692C219.702 10.796 219.918 10.848 220.166 10.848C220.55 10.848 220.842 10.736 221.042 10.512C221.25 10.28 221.354 9.952 221.354 9.528V6.24H222.674V9.588C222.674 10.092 222.566 10.536 222.35 10.92C222.142 11.296 221.85 11.592 221.474 11.808C221.098 12.016 220.662 12.12 220.166 12.12ZM224.014 12V6.24H225.334V12H224.014ZM224.674 5.184C224.45 5.184 224.262 5.108 224.11 4.956C223.966 4.804 223.894 4.616 223.894 4.392C223.894 4.168 223.966 3.98 224.11 3.828C224.262 3.676 224.45 3.6 224.674 3.6C224.906 3.6 225.094 3.676 225.238 3.828C225.382 3.98 225.454 4.168 225.454 4.392C225.454 4.616 225.382 4.804 225.238 4.956C225.094 5.108 224.906 5.184 224.674 5.184ZM226.814 12V6.24H228.134V12H226.814ZM228.134 8.796L227.678 8.568C227.678 7.84 227.838 7.252 228.158 6.804C228.486 6.348 228.978 6.12 229.634 6.12C229.922 6.12 230.182 6.172 230.414 6.276C230.646 6.38 230.862 6.548 231.062 6.78L230.198 7.668C230.094 7.556 229.978 7.476 229.85 7.428C229.722 7.38 229.574 7.356 229.406 7.356C229.038 7.356 228.734 7.472 228.494 7.704C228.254 7.936 228.134 8.3 228.134 8.796ZM233.937 12.12C233.417 12.12 232.945 11.988 232.521 11.724C232.105 11.46 231.773 11.104 231.525 10.656C231.285 10.2 231.165 9.692 231.165 9.132C231.165 8.564 231.285 8.056 231.525 7.608C231.773 7.152 232.105 6.792 232.521 6.528C232.945 6.256 233.417 6.12 233.937 6.12C234.377 6.12 234.765 6.216 235.101 6.408C235.445 6.592 235.717 6.848 235.917 7.176C236.117 7.504 236.217 7.876 236.217 8.292V9.948C236.217 10.364 236.117 10.736 235.917 11.064C235.725 11.392 235.457 11.652 235.113 11.844C234.769 12.028 234.377 12.12 233.937 12.12ZM234.153 10.872C234.641 10.872 235.033 10.708 235.329 10.38C235.633 10.052 235.785 9.632 235.785 9.12C235.785 8.776 235.717 8.472 235.581 8.208C235.445 7.944 235.253 7.74 235.005 7.596C234.765 7.444 234.481 7.368 234.153 7.368C233.833 7.368 233.549 7.444 233.301 7.596C233.061 7.74 232.869 7.944 232.725 8.208C232.589 8.472 232.521 8.776 232.521 9.12C232.521 9.464 232.589 9.768 232.725 10.032C232.869 10.296 233.061 10.504 233.301 10.656C233.549 10.8 233.833 10.872 234.153 10.872ZM235.701 12V10.452L235.929 9.048L235.701 7.656V6.24H237.021V12H235.701ZM242.434 12V8.676C242.434 8.292 242.31 7.976 242.062 7.728C241.822 7.48 241.51 7.356 241.126 7.356C240.87 7.356 240.642 7.412 240.442 7.524C240.242 7.636 240.086 7.792 239.974 7.992C239.862 8.192 239.806 8.42 239.806 8.676L239.29 8.388C239.29 7.948 239.386 7.56 239.578 7.224C239.77 6.88 240.034 6.612 240.37 6.42C240.714 6.22 241.098 6.12 241.522 6.12C241.954 6.12 242.338 6.232 242.674 6.456C243.01 6.672 243.274 6.956 243.466 7.308C243.658 7.652 243.754 8.012 243.754 8.388V12H242.434ZM238.486 12V6.24H239.806V12H238.486ZM247.771 12.12C247.195 12.12 246.675 11.992 246.211 11.736C245.755 11.472 245.391 11.112 245.119 10.656C244.855 10.2 244.723 9.688 244.723 9.12C244.723 8.552 244.855 8.044 245.119 7.596C245.383 7.14 245.739 6.78 246.187 6.516C246.643 6.252 247.147 6.12 247.699 6.12C248.235 6.12 248.707 6.244 249.115 6.492C249.531 6.74 249.855 7.08 250.087 7.512C250.327 7.944 250.447 8.436 250.447 8.988C250.447 9.084 250.439 9.184 250.423 9.288C250.415 9.384 250.399 9.492 250.375 9.612H245.647V8.532H249.691L249.199 8.964C249.183 8.612 249.115 8.316 248.995 8.076C248.875 7.836 248.703 7.652 248.479 7.524C248.263 7.396 247.995 7.332 247.675 7.332C247.339 7.332 247.047 7.404 246.799 7.548C246.551 7.692 246.359 7.896 246.223 8.16C246.087 8.416 246.019 8.724 246.019 9.084C246.019 9.444 246.091 9.76 246.235 10.032C246.379 10.304 246.583 10.516 246.847 10.668C247.111 10.812 247.415 10.884 247.759 10.884C248.055 10.884 248.327 10.832 248.575 10.728C248.831 10.624 249.047 10.472 249.223 10.272L250.063 11.124C249.783 11.452 249.443 11.7 249.043 11.868C248.643 12.036 248.219 12.12 247.771 12.12Z" fill="white" fill-opacity="0.38"/>
<path d="M5.928 5.284C6.696 5.32 6.894 5.974 6.906 6.28H7.98C7.932 5.092 7.086 4.366 5.91 4.366C4.584 4.366 3.6 5.2 3.6 7.084C3.6 8.248 4.158 9.628 5.904 9.628C7.236 9.628 7.95 8.638 7.968 7.858H6.894C6.876 8.212 6.624 8.686 5.916 8.722C5.13 8.698 4.8 8.086 4.8 7.084C4.8 5.35 5.568 5.296 5.928 5.284ZM6 1C2.688 1 0 3.688 0 7C0 10.312 2.688 13 6 13C9.312 13 12 10.312 12 7C12 3.688 9.312 1 6 1ZM6 11.8C3.354 11.8 1.2 9.646 1.2 7C1.2 4.354 3.354 2.2 6 2.2C8.646 2.2 10.8 4.354 10.8 7C10.8 9.646 8.646 11.8 6 11.8Z" fill="white" fill-opacity="0.38"/>
</svg>
