<svg width="26" height="23" viewBox="0 0 26 23" fill="none" xmlns="http://www.w3.org/2000/svg">
<path d="M2.16667 13.8C1.56481 13.8 1.05348 13.5761 0.632667 13.1284C0.210889 12.6817 0 12.1389 0 11.5C0 10.8611 0.210889 10.3183 0.632667 9.8716C1.05348 9.42387 1.56481 9.2 2.16667 9.2C2.76852 9.2 3.27985 9.42387 3.70067 9.8716C4.12244 10.3183 4.33333 10.8611 4.33333 11.5C4.33333 12.1389 4.12244 12.6817 3.70067 13.1284C3.27985 13.5761 2.76852 13.8 2.16667 13.8ZM2.16667 4.6C1.56481 4.6 1.05348 4.37613 0.632667 3.9284C0.210889 3.48169 0 2.93889 0 2.3C0 1.66111 0.210889 1.11831 0.632667 0.6716C1.05348 0.223867 1.56481 0 2.16667 0C2.76852 0 3.27985 0.223867 3.70067 0.6716C4.12244 1.11831 4.33333 1.66111 4.33333 2.3C4.33333 2.93889 4.12244 3.48169 3.70067 3.9284C3.27985 4.37613 2.76852 4.6 2.16667 4.6ZM2.16667 23C1.56481 23 1.05348 22.7761 0.632667 22.3284C0.210889 21.8817 0 21.3389 0 20.7C0 20.0611 0.210889 19.5183 0.632667 19.0716C1.05348 18.6239 1.56481 18.4 2.16667 18.4C2.76852 18.4 3.27985 18.6239 3.70067 19.0716C4.12244 19.5183 4.33333 20.0611 4.33333 20.7C4.33333 21.3389 4.12244 21.8817 3.70067 22.3284C3.27985 22.7761 2.76852 23 2.16667 23ZM8.66667 22.2333C8.25741 22.2333 7.91459 22.0861 7.63822 21.7917C7.36089 21.4984 7.22222 21.1344 7.22222 20.7C7.22222 20.2656 7.36089 19.9016 7.63822 19.6083C7.91459 19.3139 8.25741 19.1667 8.66667 19.1667H24.5556C24.9648 19.1667 25.3076 19.3139 25.584 19.6083C25.8613 19.9016 26 20.2656 26 20.7C26 21.1344 25.8613 21.4984 25.584 21.7917C25.3076 22.0861 24.9648 22.2333 24.5556 22.2333H8.66667ZM8.66667 13.0333C8.25741 13.0333 7.91459 12.8861 7.63822 12.5917C7.36089 12.2984 7.22222 11.9344 7.22222 11.5C7.22222 11.0656 7.36089 10.7011 7.63822 10.4067C7.91459 10.1134 8.25741 9.96667 8.66667 9.96667H24.5556C24.9648 9.96667 25.3076 10.1134 25.584 10.4067C25.8613 10.7011 26 11.0656 26 11.5C26 11.9344 25.8613 12.2984 25.584 12.5917C25.3076 12.8861 24.9648 13.0333 24.5556 13.0333H8.66667ZM8.66667 3.83333C8.25741 3.83333 7.91459 3.68664 7.63822 3.39327C7.36089 3.09887 7.22222 2.73444 7.22222 2.3C7.22222 1.86556 7.36089 1.50113 7.63822 1.20673C7.91459 0.913356 8.25741 0.766667 8.66667 0.766667H24.5556C24.9648 0.766667 25.3076 0.913356 25.584 1.20673C25.8613 1.50113 26 1.86556 26 2.3C26 2.73444 25.8613 3.09887 25.584 3.39327C25.3076 3.68664 24.9648 3.83333 24.5556 3.83333H8.66667Z" fill="white"/>
</svg>
