<svg width="379" height="379" viewBox="0 0 379 379" fill="none" xmlns="http://www.w3.org/2000/svg">
<path d="M189.499 0C144.502 0.00186406 100.974 15.9989 66.7034 45.1289C32.4326 74.2588 9.65549 114.621 2.44757 158.993C-4.76034 203.364 4.07128 248.851 27.3622 287.313C50.6531 325.775 86.8835 354.702 129.571 368.92C139.046 370.576 142.599 364.897 142.599 359.927C142.599 355.431 142.362 340.523 142.362 324.668C94.7498 333.424 82.4324 313.074 78.6425 302.425C74.437 292.068 67.7705 282.89 59.2188 275.684C52.5864 272.135 43.1115 263.379 58.9818 263.143C65.0417 263.8 70.8538 265.906 75.9256 269.284C80.9974 272.662 85.1795 277.211 88.1174 282.546C90.7092 287.198 94.1942 291.293 98.3729 294.596C102.551 297.9 107.342 300.347 112.469 301.798C117.596 303.249 122.959 303.675 128.251 303.051C133.543 302.428 138.66 300.767 143.308 298.165C144.129 288.541 148.422 279.542 155.389 272.845C113.226 268.112 69.1675 251.783 69.1675 179.373C68.9012 160.558 75.8509 142.354 88.5911 128.495C82.7978 112.143 83.4757 94.1976 90.4861 78.328C90.4861 78.328 106.356 73.3584 142.598 97.7324C173.606 89.2129 206.34 89.2129 237.348 97.7324C273.589 73.1219 289.46 78.328 289.46 78.328C296.471 94.1974 297.149 112.143 291.355 128.495C304.133 142.331 311.089 160.55 310.778 179.373C310.778 252.02 266.483 268.112 224.32 272.845C228.842 277.424 232.325 282.922 234.532 288.965C236.739 295.008 237.619 301.455 237.111 307.868C237.111 333.188 236.874 353.538 236.874 359.928C236.874 364.898 240.427 370.814 249.902 368.92C292.514 354.587 328.64 325.592 351.832 287.11C375.023 248.628 383.771 203.165 376.513 158.836C369.255 114.508 346.464 74.198 312.208 45.1036C277.953 16.0091 234.462 0.0233782 189.499 0Z" fill="#F97316"/>
</svg>
