<svg width="94" height="94" viewBox="0 0 94 94" fill="none" xmlns="http://www.w3.org/2000/svg">
<path d="M60.8673 25.6914H33.5062C29.1366 25.6914 25.5859 29.2421 25.5859 33.6116V60.9686C25.5859 65.3381 29.1365 68.8938 33.5062 68.8938H60.8675C65.2321 68.8938 68.7879 65.3381 68.7879 60.9686V33.6116C68.7877 29.2419 65.2321 25.6914 60.8673 25.6914ZM47.1843 61.5129C39.3439 61.5129 32.9618 55.1307 32.9618 47.2903C32.9618 39.4499 39.3441 33.0678 47.1843 33.0678C55.0296 33.0678 61.4067 39.4499 61.4067 47.2903C61.4067 55.1307 55.0246 61.5129 47.1843 61.5129ZM61.8663 36.0086C60.0085 36.0086 58.5004 34.5012 58.5004 32.6434C58.5004 30.79 60.0085 29.2775 61.8663 29.2775C63.7189 29.2775 65.2321 30.79 65.2321 32.6434C65.2321 34.5012 63.7189 36.0086 61.8663 36.0086Z" fill="#F97316"/>
<path d="M47.1846 39.0806C42.6601 39.0806 38.9746 42.7611 38.9746 47.2903C38.9746 51.8198 42.6601 55.5052 47.1846 55.5052C51.714 55.5052 55.3995 51.8198 55.3995 47.2903C55.3995 42.7658 51.714 39.0806 47.1846 39.0806Z" fill="#F97316"/>
<path d="M47.1836 1.26709C21.8348 1.26709 1.28516 21.8167 1.28516 47.1655C1.28516 72.5143 21.8348 93.064 47.1836 93.064C72.5324 93.064 93.082 72.5143 93.082 47.1655C93.082 21.8169 72.5324 1.26709 47.1836 1.26709ZM74.7946 60.9687C74.7946 68.6541 68.5475 74.9014 60.8668 74.9014H33.5055C25.825 74.9014 19.5727 68.6543 19.5727 60.9687V33.6117C19.5727 25.9318 25.825 19.6795 33.5055 19.6795H60.8668C68.5475 19.6795 74.7946 25.9318 74.7946 33.6117V60.9687Z" fill="#F97316"/>
</svg>
