<svg width="344" height="344" viewBox="0 0 344 344" fill="none" xmlns="http://www.w3.org/2000/svg">
<g clip-path="url(#clip0_840_11)">
<path d="M191.937 150.383H192.197V149.974L191.937 150.383ZM191.937 150.383H192.197V149.974L191.937 150.383ZM191.937 150.383H192.197V149.974L191.937 150.383ZM191.937 150.383H192.197V149.974L191.937 150.383ZM191.937 150.383H192.197V149.974L191.937 150.383ZM191.937 150.383H192.197V149.974L191.937 150.383ZM191.937 150.383H192.197V149.974L191.937 150.383ZM191.937 150.383H192.197V149.974L191.937 150.383ZM191.937 150.383H192.197V149.974L191.937 150.383ZM191.937 150.383H192.197V149.974L191.937 150.383ZM191.937 150.383H192.197V149.974L191.937 150.383ZM191.937 150.383H192.197V149.974L191.937 150.383ZM191.937 150.383H192.197V149.974L191.937 150.383ZM191.937 150.383H192.197V149.974L191.937 150.383ZM191.937 150.383H192.197V149.974L191.937 150.383ZM191.937 150.383H192.197V149.974L191.937 150.383ZM175 0C141.377 0 108.509 9.97032 80.5531 28.6502C52.5968 47.33 30.8074 73.8804 17.9406 104.944C5.07366 136.007 1.70709 170.189 8.26658 203.165C14.8261 236.142 31.017 266.433 54.7919 290.208C78.5668 313.983 108.858 330.174 141.835 336.733C174.811 343.293 208.993 339.926 240.056 327.059C271.12 314.193 297.67 292.403 316.35 264.447C335.03 236.491 345 203.623 345 170C344.951 124.928 327.024 81.7168 295.154 49.8462C263.283 17.9757 220.072 0.0492641 175 0ZM132.491 246.532C132.481 247.285 132.175 248.005 131.638 248.534C131.102 249.064 130.378 249.361 129.625 249.361H96.8678C96.1175 249.361 95.3979 249.063 94.8674 248.532C94.3369 248.001 94.0388 247.282 94.0388 246.532V136.462C94.0339 136.087 94.1034 135.715 94.2434 135.368C94.3833 135.02 94.5909 134.704 94.8541 134.437C95.1173 134.17 95.4309 133.959 95.7765 133.814C96.1222 133.67 96.4931 133.595 96.8678 133.595H129.625C130.001 133.595 130.374 133.669 130.721 133.814C131.069 133.958 131.385 134.169 131.651 134.435C131.917 134.701 132.129 135.017 132.273 135.365C132.417 135.712 132.491 136.085 132.491 136.462V246.532ZM112.092 118.892C108.021 118.892 104.041 117.685 100.656 115.423C97.2709 113.161 94.6325 109.946 93.0745 106.185C91.5165 102.423 91.1089 98.2846 91.9031 94.2915C92.6974 90.2985 94.6579 86.6307 97.5367 83.7519C100.416 80.8731 104.083 78.9126 108.076 78.1183C112.069 77.324 116.208 77.7317 119.97 79.2897C123.731 80.8477 126.946 83.4861 129.208 86.8712C131.47 90.2563 132.677 94.2362 132.677 98.3074C132.682 101.012 132.153 103.691 131.12 106.191C130.087 108.69 128.571 110.961 126.659 112.874C124.746 114.786 122.475 116.302 119.975 117.335C117.476 118.368 114.797 118.897 112.092 118.892ZM271.111 246.532C271.101 247.285 270.795 248.005 270.259 248.534C269.722 249.064 268.999 249.361 268.245 249.361H235.488C235.117 249.361 234.749 249.287 234.406 249.145C234.062 249.003 233.751 248.795 233.488 248.532C233.225 248.269 233.017 247.957 232.875 247.614C232.733 247.271 232.659 246.903 232.659 246.532V187.383C232.659 171.824 227.113 161.327 213.191 161.327C208.853 161.351 204.629 162.716 201.097 165.235C197.565 167.754 194.899 171.304 193.463 175.397C192.482 178.423 192.053 181.6 192.197 184.778V246.532C192.197 247.292 191.895 248.021 191.358 248.558C190.82 249.096 190.091 249.398 189.331 249.398H156.574C156.2 249.398 155.829 249.323 155.483 249.179C155.137 249.034 154.824 248.823 154.561 248.556C154.298 248.289 154.09 247.973 153.95 247.626C153.81 247.278 153.74 246.906 153.745 246.532C153.745 230.823 154.155 154.552 153.745 136.61C153.74 136.236 153.81 135.864 153.95 135.516C154.09 135.169 154.298 134.853 154.561 134.586C154.824 134.319 155.137 134.108 155.483 133.963C155.829 133.819 156.2 133.744 156.574 133.744H189.257C189.634 133.739 190.009 133.81 190.359 133.952C190.709 134.094 191.027 134.305 191.295 134.573C191.562 134.84 191.773 135.158 191.915 135.508C192.057 135.858 192.128 136.233 192.123 136.61V150.123C195.605 144.078 200.675 139.103 206.785 135.737C212.894 132.371 219.808 130.742 226.778 131.027C252.053 131.027 271.037 147.554 271.037 183.14L271.111 246.532ZM192.197 150.495V150.085L191.937 150.495H192.197ZM191.937 150.495H192.197V150.085L191.937 150.495ZM191.937 150.495H192.197V150.085L191.937 150.495ZM191.937 150.495H192.197V150.085L191.937 150.495ZM191.937 150.495H192.197V150.085L191.937 150.495ZM191.937 150.495H192.197V150.085L191.937 150.495ZM191.937 150.495H192.197V150.085L191.937 150.495ZM191.937 150.495H192.197V150.085L191.937 150.495ZM191.937 150.495H192.197V150.085L191.937 150.495ZM191.937 150.495H192.197V150.085L191.937 150.495ZM191.937 150.495H192.197V150.085L191.937 150.495ZM191.937 150.495H192.197V150.085L191.937 150.495ZM191.937 150.495H192.197V150.085L191.937 150.495ZM191.937 150.495H192.197V150.085L191.937 150.495ZM191.937 150.495H192.197V150.085L191.937 150.495Z" fill="#F97316"/>
</g>
<defs>
<clipPath id="clip0_840_11">
<rect width="344" height="344" fill="white"/>
</clipPath>
</defs>
</svg>
