<svg width="400" height="400" viewBox="0 0 400 400" fill="none" xmlns="http://www.w3.org/2000/svg">
<path d="M308.121 277.63C258.088 311.564 188.782 298.502 154.014 249.087C119.252 199.664 130.386 130.019 179.234 94.3999C180.76 93.2876 181.877 91.7026 182.411 89.8907C182.945 88.0788 182.866 86.1414 182.187 84.3789C181.509 82.6162 180.268 81.1264 178.658 80.1405C177.047 79.1546 175.156 78.7277 173.278 78.9259C148.659 81.5527 125.114 90.3999 104.858 104.635C39.0697 150.904 23.5297 242.536 69.8007 308.322C116.073 374.107 207.564 390.447 273.351 344.17C293.562 329.957 309.912 310.699 320.671 288.465C321.493 286.764 321.73 284.839 321.345 282.99C320.961 281.14 319.976 279.47 318.544 278.238C317.116 277.003 315.32 276.275 313.435 276.165C311.551 276.055 309.683 276.57 308.121 277.63ZM283.232 59.0959C283.232 59.9628 283.062 60.8211 282.73 61.622C282.398 62.4228 281.912 63.1504 281.299 63.763C280.685 64.3757 279.957 64.8614 279.156 65.1924C278.355 65.5234 277.497 65.6931 276.63 65.6919H260.21V82.1169C260.209 83.8674 259.513 85.5459 258.275 86.7833C257.037 88.0208 255.358 88.716 253.608 88.716C252.741 88.7169 251.882 88.5468 251.081 88.2156C250.28 87.8843 249.552 87.3983 248.938 86.7854C248.325 86.1725 247.839 85.4447 247.507 84.6436C247.176 83.8425 247.005 82.9839 247.006 82.1169V65.6909H230.582C228.833 65.6907 227.155 64.9956 225.918 63.7587C224.681 62.5217 223.987 60.8441 223.987 59.0949C223.987 57.2679 224.72 55.6189 225.918 54.4249C227.116 53.2309 228.764 52.4909 230.582 52.4909H247.006V36.0699C247.006 35.2031 247.177 34.3448 247.509 33.5441C247.84 32.7433 248.327 32.0158 248.94 31.403C249.553 30.7902 250.281 30.3042 251.082 29.9727C251.883 29.6412 252.741 29.4707 253.608 29.4709C254.475 29.4704 255.333 29.6407 256.134 29.9721C256.935 30.3035 257.663 30.7896 258.276 31.4024C258.889 32.0152 259.376 32.7429 259.707 33.5438C260.039 34.3447 260.21 35.2031 260.21 36.0699V52.4919H276.63C277.497 52.4917 278.356 52.6623 279.157 52.9942C279.958 53.326 280.686 53.8124 281.299 54.4257C281.912 55.0391 282.399 55.7672 282.73 56.5685C283.062 57.3699 283.232 58.2287 283.232 59.0959Z" fill="#F97316"/>
<path d="M259.542 163.072C259.542 164.892 258.802 166.545 257.604 167.742C256.992 168.354 256.265 168.84 255.464 169.17C254.664 169.501 253.806 169.669 252.94 169.667H236.522V186.095C236.522 189.738 233.563 192.69 229.915 192.69C229.048 192.692 228.189 192.523 227.389 192.192C226.588 191.86 225.86 191.373 225.249 190.759C224.636 190.147 224.151 189.419 223.819 188.619C223.488 187.819 223.318 186.961 223.319 186.095V169.667H206.894C206.028 169.668 205.17 169.497 204.369 169.166C203.569 168.835 202.842 168.349 202.229 167.737C201.616 167.124 201.131 166.397 200.8 165.597C200.468 164.796 200.298 163.938 200.299 163.072C200.297 162.205 200.466 161.346 200.797 160.545C201.129 159.744 201.615 159.016 202.229 158.404C202.84 157.79 203.567 157.303 204.368 156.971C205.169 156.639 206.027 156.469 206.894 156.47H223.319V140.048C223.319 138.743 223.705 137.466 224.43 136.381C225.156 135.295 226.186 134.449 227.392 133.95C228.598 133.45 229.925 133.319 231.206 133.574C232.486 133.829 233.662 134.458 234.585 135.381C235.2 135.993 235.687 136.72 236.02 137.521C236.353 138.322 236.523 139.181 236.523 140.048V156.47H252.941C254.691 156.471 256.37 157.167 257.608 158.405C258.845 159.643 259.541 161.321 259.542 163.072ZM356.819 133.45C356.819 135.272 356.079 136.924 354.881 138.117C354.269 138.73 353.542 139.216 352.741 139.548C351.941 139.879 351.083 140.05 350.217 140.049H333.791V156.474C333.79 158.224 333.094 159.902 331.857 161.139C330.619 162.376 328.941 163.07 327.191 163.07C326.324 163.073 325.465 162.903 324.664 162.572C323.863 162.24 323.136 161.753 322.525 161.138C321.91 160.527 321.423 159.8 321.091 159C320.758 158.199 320.588 157.341 320.589 156.474V140.049H304.169C302.863 140.05 301.586 139.664 300.5 138.939C299.414 138.215 298.567 137.184 298.067 135.978C297.567 134.771 297.436 133.444 297.691 132.163C297.946 130.882 298.575 129.706 299.499 128.783C300.112 128.169 300.84 127.682 301.641 127.351C302.442 127.019 303.301 126.848 304.169 126.849H320.589V110.43C320.589 109.563 320.76 108.705 321.092 107.904C321.423 107.103 321.91 106.375 322.523 105.763C323.136 105.15 323.863 104.663 324.664 104.332C325.465 104 326.324 103.829 327.19 103.829C328.057 103.83 328.916 104 329.716 104.332C330.517 104.664 331.245 105.15 331.858 105.763C332.471 106.376 332.957 107.104 333.289 107.905C333.62 108.706 333.791 109.564 333.791 110.431V126.85H350.217C351.084 126.85 351.942 127.02 352.743 127.352C353.544 127.684 354.272 128.17 354.885 128.783C355.498 129.396 355.984 130.123 356.316 130.924C356.648 131.725 356.819 132.583 356.819 133.45Z" fill="#F97316"/>
</svg>
