<svg width="138" height="138" viewBox="0 0 138 138" fill="none" xmlns="http://www.w3.org/2000/svg">
<path d="M69.0004 96.5999C84.2435 96.5999 96.6004 84.243 96.6004 68.9999C96.6004 53.7568 84.2435 41.3999 69.0004 41.3999C53.7573 41.3999 41.4004 53.7568 41.4004 68.9999C41.4004 84.243 53.7573 96.5999 69.0004 96.5999Z" fill="white"/>
<path d="M68.9992 27.6002C67.7792 27.6002 66.6092 27.1156 65.7465 26.2529C64.8839 25.3902 64.3992 24.2202 64.3992 23.0002V13.8002C64.3992 12.5802 64.8839 11.4102 65.7465 10.5475C66.6092 9.68484 67.7792 9.2002 68.9992 9.2002C70.2192 9.2002 71.3892 9.68484 72.2519 10.5475C73.1146 11.4102 73.5992 12.5802 73.5992 13.8002V23.0002C73.5992 24.2202 73.1146 25.3902 72.2519 26.2529C71.3892 27.1156 70.2192 27.6002 68.9992 27.6002ZM68.9992 128.8C67.7792 128.8 66.6092 128.316 65.7465 127.453C64.8839 126.59 64.3992 125.42 64.3992 124.2V115C64.3992 113.78 64.8839 112.61 65.7465 111.747C66.6092 110.885 67.7792 110.4 68.9992 110.4C70.2192 110.4 71.3892 110.885 72.2519 111.747C73.1146 112.61 73.5992 113.78 73.5992 115V124.2C73.5992 125.42 73.1146 126.59 72.2519 127.453C71.3892 128.316 70.2192 128.8 68.9992 128.8ZM22.9992 73.6002H13.7992C12.5792 73.6002 11.4092 73.1156 10.5465 72.2529C9.68386 71.3902 9.19922 70.2202 9.19922 69.0002C9.19922 67.7802 9.68386 66.6102 10.5465 65.7475C11.4092 64.8848 12.5792 64.4002 13.7992 64.4002H22.9992C24.2192 64.4002 25.3892 64.8848 26.2519 65.7475C27.1146 66.6102 27.5992 67.7802 27.5992 69.0002C27.5992 70.2202 27.1146 71.3902 26.2519 72.2529C25.3892 73.1156 24.2192 73.6002 22.9992 73.6002ZM124.199 73.6002H114.999C113.779 73.6002 112.609 73.1156 111.747 72.2529C110.884 71.3902 110.399 70.2202 110.399 69.0002C110.399 67.7802 110.884 66.6102 111.747 65.7475C112.609 64.8848 113.779 64.4002 114.999 64.4002H124.199C125.419 64.4002 126.589 64.8848 127.452 65.7475C128.315 66.6102 128.799 67.7802 128.799 69.0002C128.799 70.2202 128.315 71.3902 127.452 72.2529C126.589 73.1156 125.419 73.6002 124.199 73.6002ZM29.9452 112.654C28.7319 112.637 27.5745 112.141 26.7252 111.274C25.8685 110.412 25.3876 109.246 25.3876 108.031C25.3876 106.816 25.8685 105.65 26.7252 104.788L33.2112 98.2562C34.0774 97.39 35.2522 96.9034 36.4772 96.9034C37.7022 96.9034 38.877 97.39 39.7432 98.2562C40.6094 99.1224 41.096 100.297 41.096 101.522C41.096 102.747 40.6094 103.922 39.7432 104.788L33.2112 111.274C32.7852 111.709 32.2771 112.055 31.7165 112.292C31.1559 112.528 30.5538 112.652 29.9452 112.654ZM101.521 41.0782C100.916 41.0817 100.316 40.9657 99.7553 40.7367C99.1948 40.5078 98.685 40.1705 98.2552 39.7442C97.8241 39.3166 97.4819 38.8078 97.2483 38.2472C97.0148 37.6867 96.8945 37.0854 96.8945 36.4782C96.8945 35.8709 97.0148 35.2697 97.2483 34.7091C97.4819 34.1486 97.8241 33.6398 98.2552 33.2122L104.787 26.7262C105.667 25.9726 106.799 25.5788 107.957 25.6235C109.115 25.6682 110.213 26.1482 111.032 26.9674C111.851 27.7866 112.331 28.8848 112.376 30.0425C112.421 31.2003 112.027 32.3322 111.273 33.2122L104.787 39.7442C104.357 40.1705 103.848 40.5078 103.287 40.7367C102.727 40.9657 102.127 41.0817 101.521 41.0782ZM108.053 112.654C107.445 112.652 106.843 112.528 106.282 112.292C105.721 112.055 105.213 111.709 104.787 111.274L98.2552 104.788C97.8263 104.359 97.4861 103.85 97.254 103.29C97.0219 102.729 96.9024 102.129 96.9024 101.522C96.9024 100.916 97.0219 100.315 97.254 99.7546C97.4861 99.1943 97.8263 98.6851 98.2552 98.2562C98.6841 97.8273 99.1933 97.4871 99.7537 97.255C100.314 97.0228 100.915 96.9034 101.521 96.9034C102.128 96.9034 102.728 97.0228 103.289 97.255C103.849 97.4871 104.358 97.8273 104.787 98.2562L111.273 104.788C112.13 105.65 112.611 106.816 112.611 108.031C112.611 109.246 112.13 110.412 111.273 111.274C110.424 112.141 109.267 112.637 108.053 112.654ZM36.4772 41.0782C35.8718 41.0817 35.2717 40.9657 34.7112 40.7367C34.1508 40.5078 33.641 40.1705 33.2112 39.7442L26.7252 33.2122C25.9716 32.3322 25.5778 31.2003 25.6225 30.0425C25.6673 28.8848 26.1472 27.7866 26.9664 26.9674C27.7857 26.1482 28.8839 25.6682 30.0416 25.6235C31.1993 25.5788 32.3312 25.9726 33.2112 26.7262L39.7432 33.2122C40.1744 33.6398 40.5166 34.1486 40.7501 34.7091C40.9837 35.2697 41.1039 35.8709 41.1039 36.4782C41.1039 37.0854 40.9837 37.6867 40.7501 38.2472C40.5166 38.8078 40.1744 39.3166 39.7432 39.7442C39.3134 40.1705 38.8036 40.5078 38.2432 40.7367C37.6827 40.9657 37.0826 41.0817 36.4772 41.0782Z" fill="white"/>
</svg>
