<svg width="94" height="94" viewBox="0 0 94 94" fill="none" xmlns="http://www.w3.org/2000/svg">
<path d="M48.2121 2.9375C25.5199 2.9375 7.14219 21.3152 7.14219 44.0074C7.14219 53.1504 10.1348 61.5957 15.1836 68.4254L4.71875 91.0625L7.4543 89.7957L28.5309 80.0652C34.3691 83.2598 41.0703 85.0773 48.1938 85.0773C70.8676 85.0773 89.2637 66.6996 89.2637 44.0074C89.282 21.3152 70.8859 2.9375 48.2121 2.9375ZM70.1148 61.5406C69.8762 62.6789 69.3805 63.7621 68.6645 64.7168C67.7832 65.8918 66.6449 66.773 65.3414 67.3238C64.0379 67.8746 62.6059 68.0949 61.1738 67.9113C57.3367 67.4523 53.6281 66.2223 50.3051 64.2395C46.468 61.9629 41.309 58.4195 37.4168 53.3523C33.2676 48.4871 31.0094 42.7957 29.5773 38.5547C28.3473 34.9012 27.9066 31.009 28.2555 27.1719C28.384 25.7215 28.898 24.3629 29.7059 23.2063C30.5137 22.0496 31.6336 21.1133 32.9555 20.5074C34.0387 19.9934 35.2137 19.7547 36.3703 19.7547C38.0227 19.7547 40.0422 19.7363 41.4375 20.7277C43.6039 22.2516 44.5219 25.2625 44.5219 27.9062C44.5219 28.1449 44.5035 28.402 44.4852 28.6406C44.3566 30.091 44.2281 31.3578 43.402 32.5145C42.5941 33.6711 41.107 34.6809 39.7852 35.3051C40.7949 40.7395 42.5391 44.7785 44.9441 47.3855C45.9723 48.8176 47.3676 50.1762 49.1484 51.443C50.9293 52.7098 53.0773 53.8664 55.6293 54.9313C56.5105 53.7746 57.8141 52.5262 59.1176 51.9754C60.4027 51.4246 61.6879 51.5531 63.1199 51.7367C63.3586 51.7734 63.6156 51.8102 63.8543 51.8652C66.4246 52.416 69.1785 53.9398 70.225 56.3816C70.8859 57.9605 70.4637 59.925 70.1148 61.5406Z" fill="#F97316"/>
</svg>
